<?xml version="1.0" encoding="UTF-8" standalone="no"?>
<!DOCTYPE svg PUBLIC "-//W3C//DTD SVG 1.1//EN"
 "http://www.w3.org/Graphics/SVG/1.1/DTD/svg11.dtd">
<!-- Generated by graphviz version 2.43.0 (0)
 -->
<!-- Title: pipeline_dag_20220121_201318 Pages: 1 -->
<svg width="1145pt" height="697pt"
 viewBox="0.00 0.00 1145.00 696.80" xmlns="http://www.w3.org/2000/svg" xmlns:xlink="http://www.w3.org/1999/xlink">
<g id="graph0" class="graph" transform="scale(1 1) rotate(0) translate(4 692.8)">
<title>pipeline_dag_20220121_201318</title>
<polygon fill="white" stroke="transparent" points="-4,4 -4,-692.8 1141,-692.8 1141,4 -4,4"/>
<!-- p0 -->
<g id="node1" class="node">
<title>p0</title>
<ellipse fill="black" stroke="black" cx="458" cy="-670.2" rx="3.6" ry="3.6"/>
<text text-anchor="middle" x="404.4" y="-677.6" font-family="Times,serif" font-size="14.00">Channel.fromPath</text>
</g>
<!-- p1 -->
<g id="node2" class="node">
<title>p1</title>
<ellipse fill="none" stroke="black" cx="458" cy="-626.1" rx="3.5" ry="3.5"/>
<text text-anchor="middle" x="431.5" y="-633.4" font-family="Times,serif" font-size="14.00">ifEmpty</text>
</g>
<!-- p0&#45;&gt;p1 -->
<g id="edge1" class="edge">
<title>p0&#45;&gt;p1</title>
<path fill="none" stroke="black" d="M458,-666.44C458,-661.15 458,-649.28 458,-639.95"/>
<polygon fill="black" stroke="black" points="461.5,-639.93 458,-629.93 454.5,-639.93 461.5,-639.93"/>
</g>
<!-- p6 -->
<g id="node3" class="node">
<title>p6</title>
<ellipse fill="none" stroke="black" cx="279" cy="-568.1" rx="3.5" ry="3.5"/>
<text text-anchor="middle" x="253" y="-575.4" font-family="Times,serif" font-size="14.00">splitCsv</text>
</g>
<!-- p1&#45;&gt;p6 -->
<g id="edge2" class="edge">
<title>p1&#45;&gt;p6</title>
<path fill="none" stroke="black" d="M454.51,-624.98C430.5,-624.09 290.25,-618.33 278,-604.6 272.5,-598.44 273.03,-589.02 274.78,-581.42"/>
<polygon fill="black" stroke="black" points="278.17,-582.33 277.86,-571.74 271.5,-580.21 278.17,-582.33"/>
<text text-anchor="middle" x="331.5" y="-593.4" font-family="Times,serif" font-size="14.00">sampleInfoChannel</text>
</g>
<!-- p47 -->
<g id="node6" class="node">
<title>p47</title>
<ellipse fill="none" stroke="black" cx="952" cy="-175.6" rx="28.7" ry="18"/>
<text text-anchor="middle" x="952" y="-171.9" font-family="Times,serif" font-size="14.00">ddbb</text>
</g>
<!-- p1&#45;&gt;p47 -->
<g id="edge57" class="edge">
<title>p1&#45;&gt;p47</title>
<path fill="none" stroke="black" d="M461.57,-625.07C505.31,-624.71 936,-619.86 936,-569.1 936,-569.1 936,-569.1 936,-247.1 936,-232.34 939.37,-216.27 943.02,-203.2"/>
<polygon fill="black" stroke="black" points="946.43,-204.04 945.95,-193.45 939.72,-202.02 946.43,-204.04"/>
<text text-anchor="middle" x="989.5" y="-404.4" font-family="Times,serif" font-size="14.00">sampleInfoChannel</text>
</g>
<!-- p11 -->
<g id="node14" class="node">
<title>p11</title>
<ellipse fill="none" stroke="black" cx="123" cy="-306.6" rx="44.39" ry="18"/>
<text text-anchor="middle" x="123" y="-302.9" font-family="Times,serif" font-size="14.00">mixcr_qc</text>
</g>
<!-- p1&#45;&gt;p11 -->
<g id="edge13" class="edge">
<title>p1&#45;&gt;p11</title>
<path fill="none" stroke="black" d="M454.47,-625.08C433.2,-624.92 319.91,-623.17 230,-604.6 180.52,-594.38 122,-619.63 122,-569.1 122,-569.1 122,-569.1 122,-378.1 122,-363.85 122.21,-347.98 122.43,-334.92"/>
<polygon fill="black" stroke="black" points="125.94,-334.76 122.62,-324.69 118.94,-334.63 125.94,-334.76"/>
<text text-anchor="middle" x="175.5" y="-491.4" font-family="Times,serif" font-size="14.00">sampleInfoChannel</text>
</g>
<!-- p14 -->
<g id="node17" class="node">
<title>p14</title>
<ellipse fill="none" stroke="black" cx="349" cy="-306.6" rx="57.69" ry="18"/>
<text text-anchor="middle" x="349" y="-302.9" font-family="Times,serif" font-size="14.00">data_filtering</text>
</g>
<!-- p1&#45;&gt;p14 -->
<g id="edge17" class="edge">
<title>p1&#45;&gt;p14</title>
<path fill="none" stroke="black" d="M455.68,-623.2C444.54,-613.81 397,-571.06 397,-525.1 397,-525.1 397,-525.1 397,-378.1 397,-360.32 386.44,-343.71 375.23,-331.08"/>
<polygon fill="black" stroke="black" points="377.68,-328.58 368.25,-323.76 372.61,-333.41 377.68,-328.58"/>
<text text-anchor="middle" x="450.5" y="-491.4" font-family="Times,serif" font-size="14.00">sampleInfoChannel</text>
</g>
<!-- p18 -->
<g id="node21" class="node">
<title>p18</title>
<ellipse fill="none" stroke="black" cx="180" cy="-175.6" rx="72.29" ry="18"/>
<text text-anchor="middle" x="180" y="-171.9" font-family="Times,serif" font-size="14.00">dataset_overview</text>
</g>
<!-- p1&#45;&gt;p18 -->
<g id="edge23" class="edge">
<title>p1&#45;&gt;p18</title>
<path fill="none" stroke="black" d="M454.58,-625.06C412.67,-624.5 0,-617.76 0,-569.1 0,-569.1 0,-569.1 0,-247.1 0,-221.64 63.22,-201.6 114.73,-189.49"/>
<polygon fill="black" stroke="black" points="115.56,-192.89 124.53,-187.25 114,-186.07 115.56,-192.89"/>
<text text-anchor="middle" x="53.5" y="-404.4" font-family="Times,serif" font-size="14.00">sampleInfoChannel</text>
</g>
<!-- p22 -->
<g id="node25" class="node">
<title>p22</title>
<ellipse fill="none" stroke="black" cx="494" cy="-58.6" rx="51.99" ry="18"/>
<text text-anchor="middle" x="494" y="-54.9" font-family="Times,serif" font-size="14.00">correlations</text>
</g>
<!-- p1&#45;&gt;p22 -->
<g id="edge28" class="edge">
<title>p1&#45;&gt;p22</title>
<path fill="none" stroke="black" d="M461.52,-624.93C498.5,-623.15 814,-606.8 814,-569.1 814,-569.1 814,-569.1 814,-116.1 814,-90.03 647.21,-72.16 554.46,-64.23"/>
<polygon fill="black" stroke="black" points="554.61,-60.73 544.35,-63.38 554.02,-67.71 554.61,-60.73"/>
<text text-anchor="middle" x="867.5" y="-346.4" font-family="Times,serif" font-size="14.00">sampleInfoChannel</text>
</g>
<!-- p27 -->
<g id="node29" class="node">
<title>p27</title>
<ellipse fill="none" stroke="black" cx="311" cy="-175.6" rx="37.09" ry="18"/>
<text text-anchor="middle" x="311" y="-171.9" font-family="Times,serif" font-size="14.00">overlap</text>
</g>
<!-- p1&#45;&gt;p27 -->
<g id="edge33" class="edge">
<title>p1&#45;&gt;p27</title>
<path fill="none" stroke="black" d="M454.44,-625.21C431.1,-625.88 299.86,-628.5 270,-604.6 227.1,-570.26 251.78,-538.05 230,-487.6 215.66,-454.38 200.7,-450.72 192,-415.6 188.19,-400.23 195,-395.93 195,-380.1 195,-380.1 195,-380.1 195,-247.1 195,-228.36 239.77,-205.69 273.69,-191.21"/>
<polygon fill="black" stroke="black" points="275.04,-194.44 282.92,-187.36 272.34,-187.98 275.04,-194.44"/>
<text text-anchor="middle" x="245.5" y="-404.4" font-family="Times,serif" font-size="14.00">sampleInfoChannel</text>
</g>
<!-- p32 -->
<g id="node34" class="node">
<title>p32</title>
<ellipse fill="none" stroke="black" cx="421" cy="-175.6" rx="41.69" ry="18"/>
<text text-anchor="middle" x="421" y="-171.9" font-family="Times,serif" font-size="14.00">diversity</text>
</g>
<!-- p1&#45;&gt;p32 -->
<g id="edge39" class="edge">
<title>p1&#45;&gt;p32</title>
<path fill="none" stroke="black" d="M460.04,-622.79C471.57,-609.48 527.2,-541.21 505,-487.6 487.68,-445.79 450.32,-457.41 433,-415.6 430.45,-409.44 432.87,-407.27 433,-400.6 433.44,-378.59 435,-373.12 435,-351.1 435,-351.1 435,-351.1 435,-247.1 435,-232.43 432.05,-216.36 428.85,-203.28"/>
<polygon fill="black" stroke="black" points="432.21,-202.29 426.29,-193.51 425.44,-204.07 432.21,-202.29"/>
<text text-anchor="middle" x="486.5" y="-404.4" font-family="Times,serif" font-size="14.00">sampleInfoChannel</text>
</g>
<!-- p37 -->
<g id="node39" class="node">
<title>p37</title>
<ellipse fill="none" stroke="black" cx="644" cy="-175.6" rx="32.49" ry="18"/>
<text text-anchor="middle" x="644" y="-171.9" font-family="Times,serif" font-size="14.00">kmers</text>
</g>
<!-- p1&#45;&gt;p37 -->
<g id="edge45" class="edge">
<title>p1&#45;&gt;p37</title>
<path fill="none" stroke="black" d="M461.68,-625.04C491.45,-624.44 692,-618.6 692,-569.1 692,-569.1 692,-569.1 692,-247.1 692,-228.46 680.4,-211.11 668.6,-198.28"/>
<polygon fill="black" stroke="black" points="670.84,-195.57 661.33,-190.91 665.86,-200.49 670.84,-195.57"/>
<text text-anchor="middle" x="745.5" y="-404.4" font-family="Times,serif" font-size="14.00">sampleInfoChannel</text>
</g>
<!-- p42 -->
<g id="node44" class="node">
<title>p42</title>
<ellipse fill="none" stroke="black" cx="536" cy="-175.6" rx="39.79" ry="18"/>
<text text-anchor="middle" x="536" y="-171.9" font-family="Times,serif" font-size="14.00">network</text>
</g>
<!-- p1&#45;&gt;p42 -->
<g id="edge51" class="edge">
<title>p1&#45;&gt;p42</title>
<path fill="none" stroke="black" d="M461.46,-624.91C479.51,-623.75 562,-615.86 562,-569.1 562,-569.1 562,-569.1 562,-247.1 562,-231.61 556.41,-215.32 550.41,-202.31"/>
<polygon fill="black" stroke="black" points="553.4,-200.47 545.83,-193.07 547.13,-203.58 553.4,-200.47"/>
<text text-anchor="middle" x="615.5" y="-404.4" font-family="Times,serif" font-size="14.00">sampleInfoChannel</text>
</g>
<!-- p7 -->
<g id="node9" class="node">
<title>p7</title>
<ellipse fill="none" stroke="black" cx="279" cy="-524.1" rx="3.5" ry="3.5"/>
<text text-anchor="middle" x="263" y="-531.4" font-family="Times,serif" font-size="14.00">map</text>
</g>
<!-- p6&#45;&gt;p7 -->
<g id="edge7" class="edge">
<title>p6&#45;&gt;p7</title>
<path fill="none" stroke="black" d="M279,-564.34C279,-559.07 279,-547.23 279,-537.92"/>
<polygon fill="black" stroke="black" points="282.5,-537.92 279,-527.92 275.5,-537.92 282.5,-537.92"/>
</g>
<!-- p2 -->
<g id="node4" class="node">
<title>p2</title>
<ellipse fill="black" stroke="black" cx="969" cy="-306.6" rx="3.6" ry="3.6"/>
<text text-anchor="middle" x="915.4" y="-314" font-family="Times,serif" font-size="14.00">Channel.fromPath</text>
</g>
<!-- p3 -->
<g id="node5" class="node">
<title>p3</title>
<ellipse fill="none" stroke="black" cx="969" cy="-248.1" rx="3.5" ry="3.5"/>
<text text-anchor="middle" x="942.5" y="-255.4" font-family="Times,serif" font-size="14.00">ifEmpty</text>
</g>
<!-- p2&#45;&gt;p3 -->
<g id="edge3" class="edge">
<title>p2&#45;&gt;p3</title>
<path fill="none" stroke="black" d="M969,-302.87C969,-295.59 969,-275.31 969,-261.85"/>
<polygon fill="black" stroke="black" points="972.5,-261.67 969,-251.67 965.5,-261.67 972.5,-261.67"/>
</g>
<!-- p3&#45;&gt;p47 -->
<g id="edge4" class="edge">
<title>p3&#45;&gt;p47</title>
<path fill="none" stroke="black" d="M968.35,-244.42C966.73,-237.7 962.34,-219.49 958.52,-203.64"/>
<polygon fill="black" stroke="black" points="961.87,-202.6 956.12,-193.7 955.07,-204.24 961.87,-202.6"/>
<text text-anchor="middle" x="1003.5" y="-215.4" font-family="Times,serif" font-size="14.00">mcpasChannel</text>
</g>
<!-- p49 -->
<g id="node49" class="node">
<title>p49</title>
<ellipse fill="black" stroke="black" cx="939" cy="-117.1" rx="1.8" ry="1.8"/>
</g>
<!-- p47&#45;&gt;p49 -->
<g id="edge58" class="edge">
<title>p47&#45;&gt;p49</title>
<path fill="none" stroke="black" d="M948.1,-157.65C945.95,-148.32 943.35,-137.02 941.48,-128.9"/>
<polygon fill="black" stroke="black" points="944.89,-128.08 939.23,-119.12 938.07,-129.65 944.89,-128.08"/>
</g>
<!-- p48 -->
<g id="node50" class="node">
<title>p48</title>
<ellipse fill="black" stroke="black" cx="964" cy="-117.1" rx="1.8" ry="1.8"/>
</g>
<!-- p47&#45;&gt;p48 -->
<g id="edge59" class="edge">
<title>p47&#45;&gt;p48</title>
<path fill="none" stroke="black" d="M955.6,-157.65C957.56,-148.43 959.92,-137.3 961.64,-129.19"/>
<polygon fill="black" stroke="black" points="965.13,-129.63 963.78,-119.12 958.28,-128.17 965.13,-129.63"/>
</g>
<!-- p4 -->
<g id="node7" class="node">
<title>p4</title>
<ellipse fill="black" stroke="black" cx="1073" cy="-306.6" rx="3.6" ry="3.6"/>
<text text-anchor="middle" x="1019.4" y="-314" font-family="Times,serif" font-size="14.00">Channel.fromPath</text>
</g>
<!-- p5 -->
<g id="node8" class="node">
<title>p5</title>
<ellipse fill="none" stroke="black" cx="1073" cy="-248.1" rx="3.5" ry="3.5"/>
<text text-anchor="middle" x="1046.5" y="-255.4" font-family="Times,serif" font-size="14.00">ifEmpty</text>
</g>
<!-- p4&#45;&gt;p5 -->
<g id="edge5" class="edge">
<title>p4&#45;&gt;p5</title>
<path fill="none" stroke="black" d="M1073,-302.87C1073,-295.59 1073,-275.31 1073,-261.85"/>
<polygon fill="black" stroke="black" points="1076.5,-261.67 1073,-251.67 1069.5,-261.67 1076.5,-261.67"/>
</g>
<!-- p5&#45;&gt;p47 -->
<g id="edge6" class="edge">
<title>p5&#45;&gt;p47</title>
<path fill="none" stroke="black" d="M1071.84,-244.46C1068.84,-237.94 1060.21,-220.95 1048,-211.6 1030.69,-198.35 1007.87,-189.75 988.82,-184.4"/>
<polygon fill="black" stroke="black" points="989.53,-180.96 978.97,-181.81 987.76,-187.74 989.53,-180.96"/>
<text text-anchor="middle" x="1099" y="-215.4" font-family="Times,serif" font-size="14.00">vdjdbChannel</text>
</g>
<!-- p8 -->
<g id="node10" class="node">
<title>p8</title>
<ellipse fill="none" stroke="black" cx="306" cy="-451.6" rx="63.09" ry="18"/>
<text text-anchor="middle" x="306" y="-447.9" font-family="Times,serif" font-size="14.00">mixcr_analyze</text>
</g>
<!-- p7&#45;&gt;p8 -->
<g id="edge8" class="edge">
<title>p7&#45;&gt;p8</title>
<path fill="none" stroke="black" d="M278.66,-520.42C277.99,-514.36 276.9,-499.25 281,-487.6 282.18,-484.26 283.77,-480.95 285.6,-477.79"/>
<polygon fill="black" stroke="black" points="288.6,-479.59 291.17,-469.31 282.75,-475.74 288.6,-479.59"/>
<text text-anchor="middle" x="328" y="-491.4" font-family="Times,serif" font-size="14.00">samples_channel</text>
</g>
<!-- p13 -->
<g id="node11" class="node">
<title>p13</title>
<ellipse fill="none" stroke="black" cx="365" cy="-379.1" rx="3.5" ry="3.5"/>
<text text-anchor="middle" x="343" y="-386.4" font-family="Times,serif" font-size="14.00">collect</text>
</g>
<!-- p8&#45;&gt;p13 -->
<g id="edge9" class="edge">
<title>p8&#45;&gt;p13</title>
<path fill="none" stroke="black" d="M324.39,-434.26C330.3,-428.61 336.69,-422.07 342,-415.6 348.31,-407.91 354.38,-398.42 358.7,-391.18"/>
<polygon fill="black" stroke="black" points="361.76,-392.88 363.71,-382.47 355.7,-389.39 361.76,-392.88"/>
</g>
<!-- p9 -->
<g id="node12" class="node">
<title>p9</title>
<ellipse fill="black" stroke="black" cx="342" cy="-379.1" rx="1.8" ry="1.8"/>
</g>
<!-- p8&#45;&gt;p9 -->
<g id="edge10" class="edge">
<title>p8&#45;&gt;p9</title>
<path fill="none" stroke="black" d="M314.71,-433.53C321.65,-419.94 331.13,-401.39 336.89,-390.1"/>
<polygon fill="black" stroke="black" points="340.15,-391.42 341.58,-380.92 333.92,-388.24 340.15,-391.42"/>
</g>
<!-- p10 -->
<g id="node13" class="node">
<title>p10</title>
<ellipse fill="none" stroke="black" cx="272" cy="-379.1" rx="3.5" ry="3.5"/>
<text text-anchor="middle" x="250" y="-386.4" font-family="Times,serif" font-size="14.00">collect</text>
</g>
<!-- p8&#45;&gt;p10 -->
<g id="edge11" class="edge">
<title>p8&#45;&gt;p10</title>
<path fill="none" stroke="black" d="M308.64,-433.3C309.33,-423.13 308.65,-410.39 303,-400.6 298.95,-393.58 291.42,-388.52 284.79,-385.18"/>
<polygon fill="black" stroke="black" points="285.84,-381.82 275.27,-381.15 283.11,-388.27 285.84,-381.82"/>
</g>
<!-- p13&#45;&gt;p14 -->
<g id="edge16" class="edge">
<title>p13&#45;&gt;p14</title>
<path fill="none" stroke="black" d="M364.39,-375.42C362.87,-368.7 358.73,-350.49 355.14,-334.64"/>
<polygon fill="black" stroke="black" points="358.51,-333.68 352.88,-324.7 351.68,-335.23 358.51,-333.68"/>
</g>
<!-- p10&#45;&gt;p11 -->
<g id="edge12" class="edge">
<title>p10&#45;&gt;p11</title>
<path fill="none" stroke="black" d="M269.16,-376.75C255.88,-370.47 198.99,-343.56 160.23,-325.22"/>
<polygon fill="black" stroke="black" points="161.34,-321.87 150.8,-320.76 158.35,-328.2 161.34,-321.87"/>
</g>
<!-- p12 -->
<g id="node15" class="node">
<title>p12</title>
<ellipse fill="black" stroke="black" cx="123" cy="-248.1" rx="1.8" ry="1.8"/>
</g>
<!-- p11&#45;&gt;p12 -->
<g id="edge14" class="edge">
<title>p11&#45;&gt;p12</title>
<path fill="none" stroke="black" d="M123,-288.34C123,-279.25 123,-268.37 123,-260.37"/>
<polygon fill="black" stroke="black" points="126.5,-260.1 123,-250.1 119.5,-260.1 126.5,-260.1"/>
</g>
<!-- p16 -->
<g id="node16" class="node">
<title>p16</title>
<ellipse fill="none" stroke="black" cx="156" cy="-248.1" rx="3.5" ry="3.5"/>
<text text-anchor="middle" x="134" y="-255.4" font-family="Times,serif" font-size="14.00">collect</text>
</g>
<!-- p11&#45;&gt;p16 -->
<g id="edge15" class="edge">
<title>p11&#45;&gt;p16</title>
<path fill="none" stroke="black" d="M132.72,-288.95C138.16,-279.64 144.79,-268.3 149.58,-260.1"/>
<polygon fill="black" stroke="black" points="152.66,-261.75 154.69,-251.35 146.62,-258.22 152.66,-261.75"/>
</g>
<!-- p16&#45;&gt;p18 -->
<g id="edge21" class="edge">
<title>p16&#45;&gt;p18</title>
<path fill="none" stroke="black" d="M156.91,-244.42C159.22,-237.63 165.52,-219.15 170.95,-203.19"/>
<polygon fill="black" stroke="black" points="174.27,-204.3 174.18,-193.7 167.64,-202.04 174.27,-204.3"/>
</g>
<!-- p15 -->
<g id="node18" class="node">
<title>p15</title>
<ellipse fill="black" stroke="black" cx="349" cy="-248.1" rx="1.8" ry="1.8"/>
</g>
<!-- p14&#45;&gt;p15 -->
<g id="edge18" class="edge">
<title>p14&#45;&gt;p15</title>
<path fill="none" stroke="black" d="M349,-288.34C349,-279.25 349,-268.37 349,-260.37"/>
<polygon fill="black" stroke="black" points="352.5,-260.1 349,-250.1 345.5,-260.1 352.5,-260.1"/>
</g>
<!-- p26 -->
<g id="node19" class="node">
<title>p26</title>
<ellipse fill="none" stroke="black" cx="320" cy="-248.1" rx="3.5" ry="3.5"/>
<text text-anchor="middle" x="298" y="-255.4" font-family="Times,serif" font-size="14.00">collect</text>
</g>
<!-- p14&#45;&gt;p26 -->
<g id="edge19" class="edge">
<title>p14&#45;&gt;p26</title>
<path fill="none" stroke="black" d="M340.3,-288.65C335.67,-279.63 330.1,-268.78 325.97,-260.73"/>
<polygon fill="black" stroke="black" points="329.01,-258.99 321.33,-251.69 322.78,-262.19 329.01,-258.99"/>
</g>
<!-- p17 -->
<g id="node20" class="node">
<title>p17</title>
<ellipse fill="none" stroke="black" cx="268" cy="-248.1" rx="3.5" ry="3.5"/>
<text text-anchor="middle" x="246" y="-255.4" font-family="Times,serif" font-size="14.00">collect</text>
</g>
<!-- p14&#45;&gt;p17 -->
<g id="edge20" class="edge">
<title>p14&#45;&gt;p17</title>
<path fill="none" stroke="black" d="M326.44,-289.86C310.8,-278.95 290.68,-264.92 278.6,-256.49"/>
<polygon fill="black" stroke="black" points="280.56,-253.59 270.35,-250.74 276.55,-259.33 280.56,-253.59"/>
</g>
<!-- p31 -->
<g id="node33" class="node">
<title>p31</title>
<ellipse fill="none" stroke="black" cx="375" cy="-248.1" rx="3.5" ry="3.5"/>
<text text-anchor="middle" x="353" y="-255.4" font-family="Times,serif" font-size="14.00">collect</text>
</g>
<!-- p14&#45;&gt;p31 -->
<g id="edge37" class="edge">
<title>p14&#45;&gt;p31</title>
<path fill="none" stroke="black" d="M356.8,-288.65C360.9,-279.74 365.83,-269.03 369.52,-261.01"/>
<polygon fill="black" stroke="black" points="372.81,-262.24 373.81,-251.69 366.45,-259.31 372.81,-262.24"/>
</g>
<!-- p36 -->
<g id="node38" class="node">
<title>p36</title>
<ellipse fill="none" stroke="black" cx="513" cy="-248.1" rx="3.5" ry="3.5"/>
<text text-anchor="middle" x="491" y="-255.4" font-family="Times,serif" font-size="14.00">collect</text>
</g>
<!-- p14&#45;&gt;p36 -->
<g id="edge43" class="edge">
<title>p14&#45;&gt;p36</title>
<path fill="none" stroke="black" d="M386.21,-292.78C422.59,-280.25 475.93,-261.87 500.17,-253.52"/>
<polygon fill="black" stroke="black" points="501.63,-256.72 509.94,-250.15 499.35,-250.1 501.63,-256.72"/>
</g>
<!-- p41 -->
<g id="node43" class="node">
<title>p41</title>
<ellipse fill="none" stroke="black" cx="402" cy="-248.1" rx="3.5" ry="3.5"/>
<text text-anchor="middle" x="380" y="-233.4" font-family="Times,serif" font-size="14.00">collect</text>
</g>
<!-- p14&#45;&gt;p41 -->
<g id="edge49" class="edge">
<title>p14&#45;&gt;p41</title>
<path fill="none" stroke="black" d="M364.62,-288.95C373.84,-279.12 385.21,-267 392.96,-258.73"/>
<polygon fill="black" stroke="black" points="395.6,-261.04 399.89,-251.35 390.5,-256.25 395.6,-261.04"/>
</g>
<!-- p46 -->
<g id="node48" class="node">
<title>p46</title>
<ellipse fill="none" stroke="black" cx="766" cy="-248.1" rx="3.5" ry="3.5"/>
<text text-anchor="middle" x="744" y="-255.4" font-family="Times,serif" font-size="14.00">collect</text>
</g>
<!-- p14&#45;&gt;p46 -->
<g id="edge55" class="edge">
<title>p14&#45;&gt;p46</title>
<path fill="none" stroke="black" d="M400.97,-298.56C497.38,-285.5 699.02,-258.17 752.66,-250.91"/>
<polygon fill="black" stroke="black" points="753.33,-254.35 762.77,-249.54 752.39,-247.41 753.33,-254.35"/>
</g>
<!-- p26&#45;&gt;p27 -->
<g id="edge32" class="edge">
<title>p26&#45;&gt;p27</title>
<path fill="none" stroke="black" d="M319.66,-244.42C318.8,-237.7 316.48,-219.49 314.45,-203.64"/>
<polygon fill="black" stroke="black" points="317.92,-203.18 313.18,-193.7 310.98,-204.07 317.92,-203.18"/>
</g>
<!-- p17&#45;&gt;p18 -->
<g id="edge22" class="edge">
<title>p17&#45;&gt;p18</title>
<path fill="none" stroke="black" d="M265.82,-245.36C257.99,-239.08 230.5,-217.06 208.72,-199.61"/>
<polygon fill="black" stroke="black" points="210.69,-196.71 200.7,-193.18 206.32,-202.17 210.69,-196.71"/>
</g>
<!-- p20 -->
<g id="node22" class="node">
<title>p20</title>
<ellipse fill="black" stroke="black" cx="218" cy="-117.1" rx="1.8" ry="1.8"/>
</g>
<!-- p18&#45;&gt;p20 -->
<g id="edge24" class="edge">
<title>p18&#45;&gt;p20</title>
<path fill="none" stroke="black" d="M191.4,-157.65C198.06,-147.75 206.2,-135.64 211.71,-127.44"/>
<polygon fill="black" stroke="black" points="214.64,-129.37 217.32,-119.12 208.83,-125.46 214.64,-129.37"/>
</g>
<!-- p19 -->
<g id="node23" class="node">
<title>p19</title>
<ellipse fill="black" stroke="black" cx="193" cy="-117.1" rx="1.8" ry="1.8"/>
</g>
<!-- p18&#45;&gt;p19 -->
<g id="edge25" class="edge">
<title>p18&#45;&gt;p19</title>
<path fill="none" stroke="black" d="M183.97,-157.34C186.09,-148.14 188.63,-137.1 190.48,-129.07"/>
<polygon fill="black" stroke="black" points="193.94,-129.63 192.77,-119.1 187.12,-128.07 193.94,-129.63"/>
</g>
<!-- p21 -->
<g id="node24" class="node">
<title>p21</title>
<ellipse fill="none" stroke="black" cx="169" cy="-117.1" rx="3.5" ry="3.5"/>
<text text-anchor="middle" x="147" y="-124.4" font-family="Times,serif" font-size="14.00">collect</text>
</g>
<!-- p18&#45;&gt;p21 -->
<g id="edge26" class="edge">
<title>p18&#45;&gt;p21</title>
<path fill="none" stroke="black" d="M176.64,-157.34C174.97,-148.76 172.98,-138.57 171.46,-130.72"/>
<polygon fill="black" stroke="black" points="174.85,-129.81 169.5,-120.66 167.97,-131.15 174.85,-129.81"/>
</g>
<!-- p21&#45;&gt;p22 -->
<g id="edge27" class="edge">
<title>p21&#45;&gt;p22</title>
<path fill="none" stroke="black" d="M172.42,-115.42C175.04,-114.91 178.74,-114.19 182,-113.6 271.52,-97.25 375.72,-79.46 438.19,-68.94"/>
<polygon fill="black" stroke="black" points="438.94,-72.36 448.22,-67.25 437.78,-65.46 438.94,-72.36"/>
</g>
<!-- p25 -->
<g id="node26" class="node">
<title>p25</title>
<ellipse fill="black" stroke="black" cx="469" cy="-1.8" rx="1.8" ry="1.8"/>
</g>
<!-- p22&#45;&gt;p25 -->
<g id="edge29" class="edge">
<title>p22&#45;&gt;p25</title>
<path fill="none" stroke="black" d="M486.23,-40.56C482.11,-31.54 477.2,-20.77 473.67,-13.04"/>
<polygon fill="black" stroke="black" points="476.77,-11.41 469.44,-3.76 470.41,-14.31 476.77,-11.41"/>
</g>
<!-- p24 -->
<g id="node27" class="node">
<title>p24</title>
<ellipse fill="black" stroke="black" cx="494" cy="-1.8" rx="1.8" ry="1.8"/>
</g>
<!-- p22&#45;&gt;p24 -->
<g id="edge30" class="edge">
<title>p22&#45;&gt;p24</title>
<path fill="none" stroke="black" d="M494,-40.56C494,-31.87 494,-21.56 494,-13.9"/>
<polygon fill="black" stroke="black" points="497.5,-13.76 494,-3.76 490.5,-13.76 497.5,-13.76"/>
</g>
<!-- p23 -->
<g id="node28" class="node">
<title>p23</title>
<ellipse fill="black" stroke="black" cx="519" cy="-1.8" rx="1.8" ry="1.8"/>
</g>
<!-- p22&#45;&gt;p23 -->
<g id="edge31" class="edge">
<title>p22&#45;&gt;p23</title>
<path fill="none" stroke="black" d="M501.77,-40.56C505.89,-31.54 510.8,-20.77 514.33,-13.04"/>
<polygon fill="black" stroke="black" points="517.59,-14.31 518.56,-3.76 511.23,-11.41 517.59,-14.31"/>
</g>
<!-- p30 -->
<g id="node30" class="node">
<title>p30</title>
<ellipse fill="black" stroke="black" cx="286" cy="-117.1" rx="1.8" ry="1.8"/>
</g>
<!-- p27&#45;&gt;p30 -->
<g id="edge34" class="edge">
<title>p27&#45;&gt;p30</title>
<path fill="none" stroke="black" d="M303.63,-157.95C299.4,-148.38 294.21,-136.66 290.57,-128.42"/>
<polygon fill="black" stroke="black" points="293.7,-126.86 286.46,-119.13 287.3,-129.69 293.7,-126.86"/>
</g>
<!-- p29 -->
<g id="node31" class="node">
<title>p29</title>
<ellipse fill="black" stroke="black" cx="311" cy="-117.1" rx="1.8" ry="1.8"/>
</g>
<!-- p27&#45;&gt;p29 -->
<g id="edge35" class="edge">
<title>p27&#45;&gt;p29</title>
<path fill="none" stroke="black" d="M311,-157.34C311,-148.25 311,-137.37 311,-129.37"/>
<polygon fill="black" stroke="black" points="314.5,-129.1 311,-119.1 307.5,-129.1 314.5,-129.1"/>
</g>
<!-- p28 -->
<g id="node32" class="node">
<title>p28</title>
<ellipse fill="black" stroke="black" cx="336" cy="-117.1" rx="1.8" ry="1.8"/>
</g>
<!-- p27&#45;&gt;p28 -->
<g id="edge36" class="edge">
<title>p27&#45;&gt;p28</title>
<path fill="none" stroke="black" d="M318.37,-157.95C322.6,-148.38 327.79,-136.66 331.43,-128.42"/>
<polygon fill="black" stroke="black" points="334.7,-129.69 335.54,-119.13 328.3,-126.86 334.7,-129.69"/>
</g>
<!-- p31&#45;&gt;p32 -->
<g id="edge38" class="edge">
<title>p31&#45;&gt;p32</title>
<path fill="none" stroke="black" d="M376.03,-244.4C378.4,-238.3 384.63,-223.11 392,-211.6 394.34,-207.94 397.02,-204.23 399.79,-200.66"/>
<polygon fill="black" stroke="black" points="402.67,-202.66 406.26,-192.7 397.24,-198.25 402.67,-202.66"/>
</g>
<!-- p35 -->
<g id="node35" class="node">
<title>p35</title>
<ellipse fill="black" stroke="black" cx="421" cy="-117.1" rx="1.8" ry="1.8"/>
</g>
<!-- p32&#45;&gt;p35 -->
<g id="edge40" class="edge">
<title>p32&#45;&gt;p35</title>
<path fill="none" stroke="black" d="M421,-157.34C421,-148.25 421,-137.37 421,-129.37"/>
<polygon fill="black" stroke="black" points="424.5,-129.1 421,-119.1 417.5,-129.1 424.5,-129.1"/>
</g>
<!-- p34 -->
<g id="node36" class="node">
<title>p34</title>
<ellipse fill="black" stroke="black" cx="446" cy="-117.1" rx="1.8" ry="1.8"/>
</g>
<!-- p32&#45;&gt;p34 -->
<g id="edge41" class="edge">
<title>p32&#45;&gt;p34</title>
<path fill="none" stroke="black" d="M428.5,-157.65C432.73,-148.09 437.87,-136.47 441.48,-128.31"/>
<polygon fill="black" stroke="black" points="444.7,-129.68 445.55,-119.12 438.3,-126.85 444.7,-129.68"/>
</g>
<!-- p33 -->
<g id="node37" class="node">
<title>p33</title>
<ellipse fill="black" stroke="black" cx="396" cy="-117.1" rx="1.8" ry="1.8"/>
</g>
<!-- p32&#45;&gt;p33 -->
<g id="edge42" class="edge">
<title>p32&#45;&gt;p33</title>
<path fill="none" stroke="black" d="M413.5,-157.65C409.27,-148.09 404.13,-136.47 400.52,-128.31"/>
<polygon fill="black" stroke="black" points="403.7,-126.85 396.45,-119.12 397.3,-129.68 403.7,-126.85"/>
</g>
<!-- p36&#45;&gt;p37 -->
<g id="edge44" class="edge">
<title>p36&#45;&gt;p37</title>
<path fill="none" stroke="black" d="M515.74,-245.63C527.96,-239.05 578.46,-211.87 612.33,-193.64"/>
<polygon fill="black" stroke="black" points="614.25,-196.59 621.4,-188.76 610.93,-190.42 614.25,-196.59"/>
</g>
<!-- p40 -->
<g id="node40" class="node">
<title>p40</title>
<ellipse fill="black" stroke="black" cx="644" cy="-117.1" rx="1.8" ry="1.8"/>
</g>
<!-- p37&#45;&gt;p40 -->
<g id="edge46" class="edge">
<title>p37&#45;&gt;p40</title>
<path fill="none" stroke="black" d="M644,-157.34C644,-148.25 644,-137.37 644,-129.37"/>
<polygon fill="black" stroke="black" points="647.5,-129.1 644,-119.1 640.5,-129.1 647.5,-129.1"/>
</g>
<!-- p39 -->
<g id="node41" class="node">
<title>p39</title>
<ellipse fill="black" stroke="black" cx="669" cy="-117.1" rx="1.8" ry="1.8"/>
</g>
<!-- p37&#45;&gt;p39 -->
<g id="edge47" class="edge">
<title>p37&#45;&gt;p39</title>
<path fill="none" stroke="black" d="M651.37,-157.95C655.6,-148.38 660.79,-136.66 664.43,-128.42"/>
<polygon fill="black" stroke="black" points="667.7,-129.69 668.54,-119.13 661.3,-126.86 667.7,-129.69"/>
</g>
<!-- p38 -->
<g id="node42" class="node">
<title>p38</title>
<ellipse fill="black" stroke="black" cx="619" cy="-117.1" rx="1.8" ry="1.8"/>
</g>
<!-- p37&#45;&gt;p38 -->
<g id="edge48" class="edge">
<title>p37&#45;&gt;p38</title>
<path fill="none" stroke="black" d="M636.63,-157.95C632.4,-148.38 627.21,-136.66 623.57,-128.42"/>
<polygon fill="black" stroke="black" points="626.7,-126.86 619.46,-119.13 620.3,-129.69 626.7,-126.86"/>
</g>
<!-- p41&#45;&gt;p42 -->
<g id="edge50" class="edge">
<title>p41&#45;&gt;p42</title>
<path fill="none" stroke="black" d="M404.8,-245.63C417.15,-239.13 467.7,-212.53 502.32,-194.32"/>
<polygon fill="black" stroke="black" points="503.96,-197.41 511.18,-189.66 500.7,-191.22 503.96,-197.41"/>
</g>
<!-- p45 -->
<g id="node45" class="node">
<title>p45</title>
<ellipse fill="black" stroke="black" cx="536" cy="-117.1" rx="1.8" ry="1.8"/>
</g>
<!-- p42&#45;&gt;p45 -->
<g id="edge52" class="edge">
<title>p42&#45;&gt;p45</title>
<path fill="none" stroke="black" d="M536,-157.34C536,-148.25 536,-137.37 536,-129.37"/>
<polygon fill="black" stroke="black" points="539.5,-129.1 536,-119.1 532.5,-129.1 539.5,-129.1"/>
</g>
<!-- p44 -->
<g id="node46" class="node">
<title>p44</title>
<ellipse fill="black" stroke="black" cx="561" cy="-117.1" rx="1.8" ry="1.8"/>
</g>
<!-- p42&#45;&gt;p44 -->
<g id="edge53" class="edge">
<title>p42&#45;&gt;p44</title>
<path fill="none" stroke="black" d="M543.5,-157.65C547.73,-148.09 552.87,-136.47 556.48,-128.31"/>
<polygon fill="black" stroke="black" points="559.7,-129.68 560.55,-119.12 553.3,-126.85 559.7,-129.68"/>
</g>
<!-- p43 -->
<g id="node47" class="node">
<title>p43</title>
<ellipse fill="black" stroke="black" cx="511" cy="-117.1" rx="1.8" ry="1.8"/>
</g>
<!-- p42&#45;&gt;p43 -->
<g id="edge54" class="edge">
<title>p42&#45;&gt;p43</title>
<path fill="none" stroke="black" d="M528.5,-157.65C524.27,-148.09 519.13,-136.47 515.52,-128.31"/>
<polygon fill="black" stroke="black" points="518.7,-126.85 511.45,-119.12 512.3,-129.68 518.7,-126.85"/>
</g>
<!-- p46&#45;&gt;p47 -->
<g id="edge56" class="edge">
<title>p46&#45;&gt;p47</title>
<path fill="none" stroke="black" d="M768.92,-245.99C785.7,-239.63 870.71,-207.41 918.77,-189.2"/>
<polygon fill="black" stroke="black" points="920.03,-192.46 928.14,-185.64 917.55,-185.91 920.03,-192.46"/>
</g>
</g>
</svg>
